# xmcd
#
# Track frame offsets:
#	150
#	18326
#	32780
#	49976
#	66770
#	81893
#	101267
#	124421
#	138274
#	158605
#	173812
#	177289
#	197594
#	213478
#	226681
#	244090
#	262933
#	274930
#	291703
#	321321
#
# Disc length: 4431 seconds
#
# Revision: 0
# Processed by: cddbd v1.5PL3 Copyright (c) Steve Scherf et al.
# Submitted via: dBpowerAMP V4.0
#
DISCID=20114d14
DTITLE=Mahsun Kirmizigul - Sari Sari/Basroldeyim
DYEAR=2004
DGENRE=Pop
TTITLE0=Saygimdan
TTITLE1=Sari Sari
TTITLE2=Ay Aman
TTITLE3=Baskoydum
TTITLE4=Vefasiz
TTITLE5=Hayat Ne Garip
TTITLE6=Bizden Degildir
TTITLE7=Yan Yarali Yuregim Yan
TTITLE8=Basroldeyim
TTITLE9=Kirmizi Kurdele
TTITLE10=Intro
TTITLE11=Bitti Artik
TTITLE12=Memleketim
TTITLE13=Kim Tutar Bizi
TTITLE14=Daye
TTITLE15=Dusde Gor
TTITLE16=Memrudún Kizi
TTITLE17=Gulom
TTITLE18=Saygimdan Remix
TTITLE19=DATA
EXTD=
EXTT0=
EXTT1=
EXTT2=
EXTT3=
EXTT4=
EXTT5=
EXTT6=
EXTT7=
EXTT8=
EXTT9=
EXTT10=
EXTT11=
EXTT12=
EXTT13=
EXTT14=
EXTT15=
EXTT16=
EXTT17=
EXTT18=
EXTT19=
PLAYORDER=
